<svg width="176" height="37" viewBox="0 0 176 37" fill="none" xmlns="http://www.w3.org/2000/svg">
<path d="M175 1H1V36H175V1Z" stroke="#222222" stroke-width="2"/>
<g filter="url(#filter0_d_2_48)">
<path d="M18.1705 15.8523C18.1326 15.4356 17.964 15.1117 17.6648 14.8807C17.3693 14.6458 16.947 14.5284 16.3977 14.5284C16.0341 14.5284 15.7311 14.5758 15.4886 14.6705C15.2462 14.7652 15.0644 14.8958 14.9432 15.0625C14.822 15.2254 14.7595 15.4129 14.7557 15.625C14.7481 15.7992 14.7822 15.9527 14.858 16.0852C14.9375 16.2178 15.0511 16.3352 15.1989 16.4375C15.3504 16.536 15.5322 16.6231 15.7443 16.6989C15.9564 16.7746 16.1951 16.8409 16.4602 16.8977L17.4602 17.125C18.036 17.25 18.5436 17.4167 18.983 17.625C19.4261 17.8333 19.7973 18.0814 20.0966 18.3693C20.3996 18.6572 20.6288 18.9886 20.7841 19.3636C20.9394 19.7386 21.0189 20.1591 21.0227 20.625C21.0189 21.3598 20.8333 21.9905 20.4659 22.517C20.0985 23.0436 19.5701 23.447 18.8807 23.7273C18.1951 24.0076 17.3674 24.1477 16.3977 24.1477C15.4242 24.1477 14.5758 24.0019 13.8523 23.7102C13.1288 23.4186 12.5663 22.9754 12.1648 22.3807C11.7633 21.786 11.5568 21.0341 11.5455 20.125H14.2386C14.2614 20.5 14.3617 20.8125 14.5398 21.0625C14.7178 21.3125 14.9621 21.5019 15.2727 21.6307C15.5871 21.7595 15.9508 21.8239 16.3636 21.8239C16.7424 21.8239 17.0644 21.7727 17.3295 21.6705C17.5985 21.5682 17.8049 21.4261 17.9489 21.2443C18.0928 21.0625 18.1667 20.8542 18.1705 20.6193C18.1667 20.3996 18.0985 20.2121 17.9659 20.0568C17.8333 19.8977 17.6288 19.7614 17.3523 19.6477C17.0795 19.5303 16.7311 19.4223 16.3068 19.3239L15.0909 19.0398C14.0833 18.8087 13.2898 18.4356 12.7102 17.9205C12.1307 17.4015 11.8428 16.7008 11.8466 15.8182C11.8428 15.0985 12.036 14.4678 12.4261 13.9261C12.8163 13.3845 13.3561 12.9621 14.0455 12.6591C14.7348 12.3561 15.5208 12.2045 16.4034 12.2045C17.3049 12.2045 18.0871 12.358 18.75 12.6648C19.4167 12.9678 19.9337 13.3939 20.3011 13.9432C20.6686 14.4924 20.8561 15.1288 20.8636 15.8523H18.1705ZM31.0493 15.2727V17.3182H25.5436V15.2727H31.0493ZM26.697 13.1818H29.4755V21.2557C29.4755 21.4261 29.502 21.5644 29.555 21.6705C29.6118 21.7727 29.6933 21.8466 29.7993 21.892C29.9054 21.9337 30.0323 21.9545 30.18 21.9545C30.2861 21.9545 30.3978 21.9451 30.5152 21.9261C30.6364 21.9034 30.7273 21.8845 30.788 21.8693L31.2084 23.875C31.0758 23.9129 30.8883 23.9602 30.6459 24.017C30.4073 24.0739 30.1213 24.1098 29.788 24.125C29.1364 24.1553 28.5777 24.0795 28.1118 23.8977C27.6497 23.7121 27.2955 23.4242 27.0493 23.0341C26.8069 22.6439 26.6895 22.1534 26.697 21.5625V13.1818ZM38.6072 24.1477C38.0503 24.1477 37.556 24.0549 37.1242 23.8693C36.6962 23.6799 36.3572 23.3958 36.1072 23.017C35.8609 22.6345 35.7378 22.1553 35.7378 21.5795C35.7378 21.0947 35.8231 20.6856 35.9935 20.3523C36.164 20.0189 36.3988 19.7481 36.6981 19.5398C36.9973 19.3314 37.342 19.1742 37.7322 19.0682C38.1223 18.9583 38.539 18.8845 38.9822 18.8466C39.4784 18.8011 39.878 18.7538 40.181 18.7045C40.4841 18.6515 40.7038 18.5777 40.8401 18.483C40.9803 18.3845 41.0503 18.2462 41.0503 18.0682V18.0398C41.0503 17.7481 40.95 17.5227 40.7492 17.3636C40.5484 17.2045 40.2776 17.125 39.9367 17.125C39.5693 17.125 39.2738 17.2045 39.0503 17.3636C38.8269 17.5227 38.6848 17.7424 38.6242 18.0227L36.0617 17.9318C36.1375 17.4015 36.3325 16.928 36.6469 16.5114C36.9651 16.0909 37.4007 15.7614 37.9538 15.5227C38.5106 15.2803 39.1791 15.1591 39.9594 15.1591C40.5163 15.1591 41.0295 15.2254 41.4992 15.358C41.9689 15.4867 42.378 15.6761 42.7265 15.9261C43.075 16.1723 43.3439 16.4754 43.5333 16.8352C43.7265 17.1951 43.8231 17.6061 43.8231 18.0682V24H41.2094V22.7841H41.1413C40.9859 23.0795 40.7871 23.3295 40.5447 23.5341C40.306 23.7386 40.0238 23.892 39.6981 23.9943C39.3761 24.0966 39.0125 24.1477 38.6072 24.1477ZM39.4651 22.3295C39.7644 22.3295 40.0333 22.2689 40.2719 22.1477C40.5144 22.0265 40.7075 21.8598 40.8515 21.6477C40.9954 21.4318 41.0674 21.1818 41.0674 20.8977V20.0682C40.9878 20.1098 40.8913 20.1477 40.7776 20.1818C40.6678 20.2159 40.5466 20.2481 40.414 20.2784C40.2814 20.3087 40.145 20.3352 40.0049 20.358C39.8647 20.3807 39.7303 20.4015 39.6015 20.4205C39.3401 20.4621 39.1166 20.5265 38.931 20.6136C38.7492 20.7008 38.6091 20.8144 38.5106 20.9545C38.4159 21.0909 38.3685 21.2538 38.3685 21.4432C38.3685 21.7311 38.4708 21.9508 38.6753 22.1023C38.8837 22.2538 39.1469 22.3295 39.4651 22.3295ZM50.5883 27.2727C50.255 27.2727 49.9406 27.2462 49.6451 27.1932C49.3497 27.1439 49.0959 27.0777 48.8838 26.9943L49.4974 24.9773C49.7701 25.0682 50.0163 25.1212 50.236 25.1364C50.4595 25.1515 50.6508 25.1155 50.8099 25.0284C50.9728 24.9451 51.0978 24.7955 51.1849 24.5795L51.2928 24.3182L48.1906 15.2727H51.0997L52.7076 21.5H52.7985L54.4292 15.2727H57.3553L54.0656 24.8352C53.9065 25.3125 53.6811 25.733 53.3894 26.0966C53.1016 26.464 52.7284 26.7519 52.2701 26.9602C51.8156 27.1686 51.255 27.2727 50.5883 27.2727Z" fill="black"/>
<path d="M73.9455 12.3636H76.7182V20.4091C76.7144 21.1629 76.5345 21.822 76.1784 22.3864C75.8224 22.947 75.3299 23.3826 74.7011 23.6932C74.0761 24.0038 73.3527 24.1591 72.5307 24.1591C71.8034 24.1591 71.1424 24.0322 70.5477 23.7784C69.9568 23.5246 69.4852 23.1307 69.133 22.5966C68.7845 22.0625 68.6121 21.3788 68.6159 20.5455H71.417C71.4284 20.8447 71.4852 21.1004 71.5875 21.3125C71.6936 21.5208 71.8394 21.678 72.025 21.7841C72.2106 21.8902 72.4322 21.9432 72.6898 21.9432C72.9587 21.9432 73.186 21.8864 73.3716 21.7727C73.5572 21.6553 73.6974 21.483 73.792 21.2557C73.8905 21.0284 73.9417 20.7462 73.9455 20.4091V12.3636ZM87.7945 20.233V15.2727H90.5672V24H87.9195V22.375H87.8286C87.6354 22.9091 87.3059 23.3333 86.8399 23.6477C86.3778 23.9583 85.8191 24.1136 85.1638 24.1136C84.5691 24.1136 84.0464 23.9773 83.5956 23.7045C83.1449 23.4318 82.7945 23.0511 82.5445 22.5625C82.2945 22.0701 82.1676 21.4943 82.1638 20.8352V15.2727H84.9422V20.2898C84.946 20.7633 85.071 21.1364 85.3172 21.4091C85.5634 21.6818 85.8987 21.8182 86.3229 21.8182C86.5994 21.8182 86.8475 21.7576 87.0672 21.6364C87.2907 21.5114 87.4668 21.3314 87.5956 21.0966C87.7282 20.858 87.7945 20.5701 87.7945 20.233ZM98.7941 19.0227V24H96.0157V15.2727H98.6577V16.875H98.7543C98.9475 16.3409 99.277 15.9223 99.743 15.6193C100.209 15.3125 100.764 15.1591 101.408 15.1591C102.021 15.1591 102.554 15.2973 103.004 15.5739C103.459 15.8466 103.811 16.2292 104.061 16.7216C104.315 17.2102 104.44 17.7822 104.436 18.4375V24H101.658V18.983C101.662 18.4981 101.538 18.1193 101.288 17.8466C101.042 17.5739 100.699 17.4375 100.26 17.4375C99.9683 17.4375 99.7108 17.5019 99.4873 17.6307C99.2676 17.7557 99.0971 17.9356 98.9759 18.1705C98.8585 18.4053 98.7979 18.6894 98.7941 19.0227ZM113.91 24.1648C112.99 24.1648 112.2 23.9754 111.541 23.5966C110.886 23.2178 110.382 22.6913 110.029 22.017C109.677 21.339 109.501 20.5549 109.501 19.6648C109.501 18.7708 109.677 17.9867 110.029 17.3125C110.386 16.6345 110.891 16.1061 111.547 15.7273C112.206 15.3485 112.992 15.1591 113.904 15.1591C114.711 15.1591 115.414 15.3049 116.012 15.5966C116.615 15.8883 117.084 16.3011 117.422 16.8352C117.762 17.3655 117.942 17.9886 117.961 18.7045H115.365C115.312 18.2576 115.16 17.9072 114.91 17.6534C114.664 17.3996 114.342 17.2727 113.944 17.2727C113.622 17.2727 113.34 17.3636 113.098 17.5455C112.855 17.7235 112.666 17.9886 112.529 18.3409C112.397 18.6894 112.331 19.1212 112.331 19.6364C112.331 20.1515 112.397 20.5871 112.529 20.9432C112.666 21.2955 112.855 21.5625 113.098 21.7443C113.34 21.9223 113.622 22.0114 113.944 22.0114C114.202 22.0114 114.429 21.9564 114.626 21.8466C114.827 21.7367 114.992 21.5758 115.12 21.3636C115.249 21.1477 115.331 20.8864 115.365 20.5795H117.961C117.935 21.2992 117.755 21.928 117.422 22.4659C117.092 23.0038 116.628 23.4223 116.029 23.7216C115.435 24.017 114.728 24.1648 113.91 24.1648ZM127.989 15.2727V17.3182H122.484V15.2727H127.989ZM123.637 13.1818H126.415V21.2557C126.415 21.4261 126.442 21.5644 126.495 21.6705C126.552 21.7727 126.633 21.8466 126.739 21.892C126.845 21.9337 126.972 21.9545 127.12 21.9545C127.226 21.9545 127.338 21.9451 127.455 21.9261C127.576 21.9034 127.667 21.8845 127.728 21.8693L128.148 23.875C128.016 23.9129 127.828 23.9602 127.586 24.017C127.347 24.0739 127.061 24.1098 126.728 24.125C126.076 24.1553 125.518 24.0795 125.052 23.8977C124.59 23.7121 124.236 23.4242 123.989 23.0341C123.747 22.6439 123.629 22.1534 123.637 21.5625V13.1818ZM133.087 24V15.2727H135.865V24H133.087ZM134.479 14.2557C134.089 14.2557 133.754 14.1269 133.473 13.8693C133.193 13.608 133.053 13.2936 133.053 12.9261C133.053 12.5625 133.193 12.2519 133.473 11.9943C133.754 11.733 134.089 11.6023 134.479 11.6023C134.873 11.6023 135.208 11.733 135.485 11.9943C135.765 12.2519 135.905 12.5625 135.905 12.9261C135.905 13.2936 135.765 13.608 135.485 13.8693C135.208 14.1269 134.873 14.2557 134.479 14.2557ZM145.388 24.1648C144.471 24.1648 143.683 23.9773 143.024 23.6023C142.369 23.2235 141.863 22.697 141.507 22.0227C141.155 21.3447 140.979 20.5587 140.979 19.6648C140.979 18.767 141.155 17.9811 141.507 17.3068C141.863 16.6288 142.369 16.1023 143.024 15.7273C143.683 15.3485 144.471 15.1591 145.388 15.1591C146.304 15.1591 147.09 15.3485 147.746 15.7273C148.405 16.1023 148.91 16.6288 149.263 17.3068C149.619 17.9811 149.797 18.767 149.797 19.6648C149.797 20.5587 149.619 21.3447 149.263 22.0227C148.91 22.697 148.405 23.2235 147.746 23.6023C147.09 23.9773 146.304 24.1648 145.388 24.1648ZM145.405 22.0682C145.738 22.0682 146.02 21.9659 146.251 21.7614C146.482 21.5568 146.658 21.2727 146.78 20.9091C146.905 20.5455 146.967 20.125 146.967 19.6477C146.967 19.1629 146.905 18.7386 146.78 18.375C146.658 18.0114 146.482 17.7273 146.251 17.5227C146.02 17.3182 145.738 17.2159 145.405 17.2159C145.06 17.2159 144.768 17.3182 144.53 17.5227C144.295 17.7273 144.115 18.0114 143.99 18.375C143.869 18.7386 143.808 19.1629 143.808 19.6477C143.808 20.125 143.869 20.5455 143.99 20.9091C144.115 21.2727 144.295 21.5568 144.53 21.7614C144.768 21.9659 145.06 22.0682 145.405 22.0682ZM157.678 19.0227V24H154.9V15.2727H157.542V16.875H157.639C157.832 16.3409 158.161 15.9223 158.627 15.6193C159.093 15.3125 159.648 15.1591 160.292 15.1591C160.906 15.1591 161.438 15.2973 161.889 15.5739C162.343 15.8466 162.696 16.2292 162.946 16.7216C163.199 17.2102 163.324 17.7822 163.321 18.4375V24H160.542V18.983C160.546 18.4981 160.423 18.1193 160.173 17.8466C159.927 17.5739 159.584 17.4375 159.144 17.4375C158.853 17.4375 158.595 17.5019 158.372 17.6307C158.152 17.7557 157.982 17.9356 157.86 18.1705C157.743 18.4053 157.682 18.6894 157.678 19.0227Z" fill="#AF9A7D"/>
</g>
<defs>
<filter id="filter0_d_2_48" x="7.54546" y="11.6023" width="159.781" height="23.6705" filterUnits="userSpaceOnUse" color-interpolation-filters="sRGB">
<feFlood flood-opacity="0" result="BackgroundImageFix"/>
<feColorMatrix in="SourceAlpha" type="matrix" values="0 0 0 0 0 0 0 0 0 0 0 0 0 0 0 0 0 0 127 0" result="hardAlpha"/>
<feOffset dy="4"/>
<feGaussianBlur stdDeviation="2"/>
<feComposite in2="hardAlpha" operator="out"/>
<feColorMatrix type="matrix" values="0 0 0 0 0 0 0 0 0 0 0 0 0 0 0 0 0 0 0.2 0"/>
<feBlend mode="normal" in2="BackgroundImageFix" result="effect1_dropShadow_2_48"/>
<feBlend mode="normal" in="SourceGraphic" in2="effect1_dropShadow_2_48" result="shape"/>
</filter>
</defs>
</svg>
